<svg width="162" height="31" viewBox="0 0 162 31" fill="none" xmlns="http://www.w3.org/2000/svg">
<path d="M27 0H17.6596C17.6596 1.49977 18.8754 2.71557 20.3752 2.71557H27V0Z" fill="#F3D5AA"/>
<path d="M11.4327 5.43114C11.4327 6.93091 12.6485 8.14672 14.1482 8.14672H24.1979V10.7627H6.17401C4.91928 10.7627 3.70814 11.066 2.67447 11.6423C0.949608 12.6033 0 14.118 0 15.9087C0 17.7945 0.821956 19.5431 2.31486 20.8315C3.6879 22.0173 5.52329 22.6977 7.3509 22.6977C9.49297 22.6977 11.5012 20.3713 13.8238 17.6784C14.7905 16.559 15.7884 15.4018 16.6897 14.5751C17.8262 13.5311 18.3025 13.4783 18.3866 13.4783H27V5.43114H11.4327ZM11.6755 15.9359C10.7352 17.0251 9.76539 18.1506 8.90452 18.9456C7.79457 19.97 7.36802 19.9821 7.3509 19.9821C5.15435 19.9821 2.80212 18.3452 2.80212 15.9087C2.80212 15.3913 2.93289 14.6309 4.07086 13.9973C4.6811 13.6578 5.40809 13.4783 6.17401 13.4783H13.8689C13.1591 14.2175 12.4336 15.0578 11.6755 15.9359Z" fill="#F3D5AA"/>
<path d="M27 16.1426V30.2726C25.7335 30.9545 24.1979 30.0372 24.1979 28.5988V18.8581H20.4617V25.3785C19.1952 26.0604 17.6596 25.1431 17.6596 23.7047V16.1426H27Z" fill="#F3D5AA"/>
<path d="M47.2 23.751H44.656V16.743H37.744V23.751H35.2V6.95098H37.744V14.439H44.656V6.95098H47.2V23.751ZM60.7986 18.687H52.0866C52.1346 19.519 52.4066 20.167 52.9026 20.631C53.3986 21.079 54.0146 21.351 54.7506 21.447C55.5026 21.543 56.2786 21.479 57.0786 21.255C57.8946 21.015 58.6306 20.615 59.2866 20.055L60.6786 21.999C59.8466 22.703 58.9826 23.207 58.0866 23.511C57.2066 23.815 56.3266 23.967 55.4466 23.967C53.4306 23.983 51.9026 23.423 50.8626 22.287C49.8386 21.135 49.3266 19.519 49.3266 17.439C49.3266 15.663 49.8386 14.247 50.8626 13.191C51.9026 12.135 53.3346 11.607 55.1586 11.607C57.7506 11.623 59.4706 12.639 60.3186 14.655C60.5586 15.215 60.7106 15.823 60.7746 16.479C60.8386 17.135 60.8466 17.871 60.7986 18.687ZM55.3746 14.007C54.3506 14.007 53.5426 14.279 52.9506 14.823C52.3746 15.351 52.0866 16.015 52.0866 16.815H58.5666C58.5666 16.031 58.2866 15.367 57.7266 14.823C57.1826 14.279 56.3986 14.007 55.3746 14.007ZM65.6112 23.751H63.0672V6.95098H65.6112V23.751ZM69.5965 10.287C69.1645 10.287 68.7885 10.135 68.4685 9.83098C68.1645 9.51098 68.0125 9.12698 68.0125 8.67898C68.0125 8.24698 68.1645 7.87898 68.4685 7.57498C68.7885 7.27098 69.1645 7.11898 69.5965 7.11898C70.0445 7.11898 70.4205 7.27098 70.7245 7.57498C71.0285 7.87898 71.1805 8.24698 71.1805 8.67898C71.1805 9.12698 71.0285 9.51098 70.7245 9.83098C70.4205 10.135 70.0445 10.287 69.5965 10.287ZM70.7965 23.751H68.4205V11.751H70.7965V23.751ZM78.6899 24.063C77.5379 24.063 76.5219 23.815 75.6419 23.319C74.7779 22.807 74.0979 22.103 73.6019 21.207C73.1219 20.295 72.8819 19.239 72.8819 18.039C72.8819 16.631 73.1299 15.455 73.6259 14.511C74.1219 13.551 74.8019 12.831 75.6659 12.351C76.5459 11.871 77.5539 11.631 78.6899 11.631C79.8259 11.631 80.8259 11.871 81.6899 12.351C82.5699 12.831 83.2579 13.551 83.7539 14.511C84.2499 15.455 84.4979 16.631 84.4979 18.039C84.4979 19.239 84.2499 20.295 83.7539 21.207C83.2579 22.103 82.5699 22.807 81.6899 23.319C80.8259 23.815 79.8259 24.063 78.6899 24.063ZM78.6899 21.615C79.4099 21.615 80.0179 21.447 80.5139 21.111C81.0099 20.775 81.3859 20.335 81.6419 19.791C81.9139 19.247 82.0499 18.663 82.0499 18.039C82.0499 16.919 81.7619 15.983 81.1859 15.231C80.6099 14.463 79.7779 14.079 78.6899 14.079C77.6179 14.079 76.7859 14.455 76.1939 15.207C75.6179 15.959 75.3299 16.903 75.3299 18.039C75.3299 18.679 75.4579 19.271 75.7139 19.815C75.9859 20.359 76.3699 20.799 76.8659 21.135C77.3619 21.455 77.9699 21.615 78.6899 21.615ZM85.96 22.191L87.448 20.583C88.376 21.335 89.296 21.711 90.208 21.711C90.464 21.711 90.712 21.679 90.952 21.615C91.192 21.551 91.4 21.439 91.576 21.279C91.8 21.103 91.944 20.871 92.008 20.583C92.072 20.295 92.072 20.047 92.008 19.839C91.928 19.519 91.72 19.271 91.384 19.095C91.048 18.919 90.64 18.759 90.16 18.615C89.696 18.471 89.216 18.303 88.72 18.111C88.24 17.919 87.8 17.663 87.4 17.343C86.744 16.783 86.352 16.183 86.224 15.543C86.096 14.887 86.184 14.271 86.488 13.695C86.792 13.103 87.256 12.623 87.88 12.255C88.52 11.871 89.288 11.663 90.184 11.631C91.016 11.615 91.784 11.751 92.488 12.039C93.192 12.311 93.752 12.671 94.168 13.119L92.536 14.607C92.248 14.351 91.896 14.167 91.48 14.055C91.064 13.927 90.672 13.863 90.304 13.863C89.888 13.863 89.528 13.951 89.224 14.127C88.92 14.303 88.76 14.599 88.744 15.015C88.744 15.415 88.928 15.727 89.296 15.951C89.664 16.175 90.128 16.375 90.688 16.551C91.264 16.711 91.84 16.927 92.416 17.199C93.008 17.471 93.488 17.871 93.856 18.399C94.224 18.911 94.384 19.575 94.336 20.391C94.304 21.159 94.088 21.807 93.688 22.335C93.304 22.863 92.792 23.263 92.152 23.535C91.528 23.791 90.848 23.919 90.112 23.919C89.376 23.919 88.64 23.783 87.904 23.511C87.184 23.223 86.536 22.783 85.96 22.191Z" fill="black"/>
<path d="M96.2725 23.751L101.889 6.95098H104.313L109.953 23.751H107.913L106.497 19.479H99.7045L98.2885 23.751H96.2725ZM103.113 9.25498L100.233 17.871H105.969L103.113 9.25498ZM112.048 18.567V13.527H109.96V11.751H112.048V6.95098H113.944V11.751H116.056V13.527H113.944V18.567C113.944 19.591 113.976 20.343 114.04 20.823C114.12 21.287 114.272 21.583 114.496 21.711C114.72 21.839 115.048 21.911 115.48 21.927H116.08V23.823H115.552C114.816 23.823 114.216 23.759 113.752 23.631C113.288 23.487 112.928 23.231 112.672 22.863C112.432 22.495 112.264 21.967 112.168 21.279C112.088 20.591 112.048 19.687 112.048 18.567ZM129.257 18.327H119.921C119.953 19.367 120.233 20.191 120.761 20.799C121.289 21.407 121.961 21.807 122.777 21.999C123.593 22.191 124.465 22.175 125.393 21.951C126.321 21.727 127.201 21.303 128.033 20.679L129.041 22.167C128.257 22.775 127.441 23.223 126.593 23.511C125.745 23.799 124.897 23.951 124.049 23.967C122.049 24.015 120.521 23.463 119.465 22.311C118.409 21.143 117.881 19.519 117.881 17.439C117.881 15.663 118.377 14.247 119.369 13.191C120.377 12.135 121.833 11.615 123.737 11.631C124.985 11.631 126.049 11.887 126.929 12.399C127.809 12.911 128.457 13.671 128.873 14.679C129.081 15.175 129.209 15.727 129.257 16.335C129.321 16.943 129.321 17.607 129.257 18.327ZM123.833 13.407C122.745 13.407 121.817 13.695 121.049 14.271C120.297 14.831 119.921 15.671 119.921 16.791H127.553C127.553 15.735 127.217 14.911 126.545 14.319C125.889 13.711 124.985 13.407 123.833 13.407ZM133.541 23.751H131.645V6.95098H133.541V23.751ZM137.206 10.167C136.854 10.167 136.55 10.047 136.294 9.80698C136.054 9.55098 135.934 9.24698 135.934 8.89498C135.934 8.54298 136.054 8.24698 136.294 8.00698C136.55 7.75098 136.854 7.62298 137.206 7.62298C137.558 7.62298 137.854 7.75098 138.094 8.00698C138.35 8.24698 138.478 8.54298 138.478 8.89498C138.478 9.24698 138.35 9.55098 138.094 9.80698C137.854 10.047 137.558 10.167 137.206 10.167ZM138.118 23.751H136.318V11.751H138.118V23.751ZM151.499 18.327H142.163C142.195 19.367 142.475 20.191 143.003 20.799C143.531 21.407 144.203 21.807 145.019 21.999C145.835 22.191 146.707 22.175 147.635 21.951C148.563 21.727 149.443 21.303 150.275 20.679L151.283 22.167C150.499 22.775 149.683 23.223 148.835 23.511C147.987 23.799 147.139 23.951 146.291 23.967C144.291 24.015 142.763 23.463 141.707 22.311C140.651 21.143 140.123 19.519 140.123 17.439C140.123 15.663 140.619 14.247 141.611 13.191C142.619 12.135 144.075 11.615 145.979 11.631C147.227 11.631 148.291 11.887 149.171 12.399C150.051 12.911 150.699 13.671 151.115 14.679C151.323 15.175 151.451 15.727 151.499 16.335C151.563 16.943 151.563 17.607 151.499 18.327ZM146.075 13.407C144.987 13.407 144.059 13.695 143.291 14.271C142.539 14.831 142.163 15.671 142.163 16.791H149.795C149.795 15.735 149.459 14.911 148.787 14.319C148.131 13.711 147.227 13.407 146.075 13.407ZM153.888 23.751V11.895H155.784V12.999C156.312 12.407 156.96 12.047 157.728 11.919C158.512 11.791 159.496 11.895 160.68 12.231L159.792 13.911C159.072 13.655 158.4 13.615 157.776 13.791C157.168 13.951 156.68 14.239 156.312 14.655C155.944 15.071 155.768 15.519 155.784 15.999V23.751H153.888Z" fill="#6C6C6C"/>
</svg>
