<svg width="379" height="203" viewBox="0 0 379 203" fill="none" xmlns="http://www.w3.org/2000/svg">
<path d="M0 2.31934H8.44727L18.7988 26.9531L21.1914 32.9102L23.0713 26.9531L26.8799 17.9688L20.0195 2.31934H27.9785L30.7861 9.76562L33.3984 2.31934H41.3574L34.4971 17.9688L38.3789 27.1484L40.7227 32.9102L42.5293 27.0508L52.9297 2.31934H61.377L44.5312 40.4785H36.8652L33.4717 32.9102L30.7129 25.5615L27.9541 32.9102L24.5117 40.4785H16.8457L0 2.31934ZM64.3818 0H71.6084V13.8672C73.1221 13.0371 74.8066 12.3779 76.6621 11.8896C78.5339 11.4014 80.4951 11.1572 82.5459 11.1572C84.9222 11.1572 87.0544 11.5072 88.9424 12.207C90.8467 12.9069 92.458 13.916 93.7764 15.2344C95.0947 16.5365 96.1038 18.1234 96.8037 19.9951C97.5199 21.8669 97.8779 23.9746 97.8779 26.3184V40.4785H90.6758V26.6113C90.6758 25.2441 90.4561 23.999 90.0166 22.876C89.5771 21.7367 88.9342 20.7601 88.0879 19.9463C87.2415 19.1325 86.208 18.5059 84.9873 18.0664C83.7829 17.6107 82.4157 17.3828 80.8857 17.3828C79.0465 17.3828 77.3376 17.6758 75.7588 18.2617C74.18 18.8477 72.7965 19.5882 71.6084 20.4834V40.4785H64.3818V0ZM102.616 25.9766C102.616 24.0234 103.015 22.1598 103.812 20.3857C104.61 18.5954 105.757 17.0166 107.255 15.6494C108.752 14.2822 110.583 13.1917 112.748 12.3779C114.929 11.5641 117.403 11.1572 120.17 11.1572C122.921 11.1572 125.395 11.5723 127.592 12.4023C129.805 13.2161 131.677 14.3392 133.207 15.7715C134.753 17.2038 135.933 18.8883 136.747 20.8252C137.577 22.762 137.992 24.8372 137.992 27.0508C137.992 27.3275 137.984 27.6286 137.968 27.9541C137.968 28.2633 137.951 28.5482 137.919 28.8086H110.673C110.982 29.6712 111.479 30.4606 112.162 31.1768C112.862 31.8929 113.733 32.5114 114.774 33.0322C115.816 33.5531 117.021 33.96 118.388 34.2529C119.755 34.5296 121.269 34.668 122.929 34.668C124.589 34.668 126.241 34.4971 127.885 34.1553C129.529 33.7972 131.099 33.3496 132.597 32.8125L135.038 38.3301C134.094 38.7695 133.134 39.1602 132.157 39.502C131.197 39.8275 130.188 40.1042 129.13 40.332C128.088 40.5436 126.99 40.7064 125.834 40.8203C124.695 40.9342 123.49 40.9912 122.221 40.9912C118.982 40.9912 116.142 40.6006 113.7 39.8193C111.259 39.0381 109.216 37.972 107.572 36.6211C105.928 35.2702 104.691 33.6833 103.861 31.8604C103.031 30.0374 102.616 28.0762 102.616 25.9766ZM130.326 23.1689C130.066 22.3714 129.659 21.6309 129.105 20.9473C128.568 20.2474 127.893 19.6452 127.079 19.1406C126.265 18.6198 125.321 18.2129 124.247 17.9199C123.173 17.627 121.993 17.4805 120.707 17.4805C119.34 17.4805 118.095 17.6351 116.972 17.9443C115.849 18.2536 114.864 18.6686 114.018 19.1895C113.171 19.7103 112.463 20.3125 111.894 20.9961C111.34 21.6797 110.933 22.404 110.673 23.1689H130.326ZM143.78 11.6699H151.007V15.8203C152.602 14.6322 154.286 13.6068 156.061 12.7441C157.835 11.8815 159.601 11.2223 161.358 10.7666L163.482 17.3828C160.699 17.6595 158.25 18.2861 156.134 19.2627C154.034 20.223 152.325 21.582 151.007 23.3398V40.4785H143.78V11.6699ZM165.511 25.9766C165.511 24.0234 165.91 22.1598 166.707 20.3857C167.505 18.5954 168.652 17.0166 170.149 15.6494C171.647 14.2822 173.478 13.1917 175.643 12.3779C177.824 11.5641 180.298 11.1572 183.064 11.1572C185.815 11.1572 188.289 11.5723 190.486 12.4023C192.7 13.2161 194.572 14.3392 196.102 15.7715C197.648 17.2038 198.828 18.8883 199.642 20.8252C200.472 22.762 200.887 24.8372 200.887 27.0508C200.887 27.3275 200.879 27.6286 200.862 27.9541C200.862 28.2633 200.846 28.5482 200.813 28.8086H173.567C173.877 29.6712 174.373 30.4606 175.057 31.1768C175.757 31.8929 176.627 32.5114 177.669 33.0322C178.711 33.5531 179.915 33.96 181.282 34.2529C182.649 34.5296 184.163 34.668 185.823 34.668C187.483 34.668 189.135 34.4971 190.779 34.1553C192.423 33.7972 193.994 33.3496 195.491 32.8125L197.933 38.3301C196.989 38.7695 196.028 39.1602 195.052 39.502C194.091 39.8275 193.082 40.1042 192.024 40.332C190.983 40.5436 189.884 40.7064 188.729 40.8203C187.589 40.9342 186.385 40.9912 185.115 40.9912C181.876 40.9912 179.036 40.6006 176.595 39.8193C174.153 39.0381 172.111 37.972 170.467 36.6211C168.823 35.2702 167.586 33.6833 166.756 31.8604C165.926 30.0374 165.511 28.0762 165.511 25.9766ZM193.221 23.1689C192.96 22.3714 192.553 21.6309 192 20.9473C191.463 20.2474 190.787 19.6452 189.974 19.1406C189.16 18.6198 188.216 18.2129 187.142 17.9199C186.067 17.627 184.887 17.4805 183.602 17.4805C182.234 17.4805 180.989 17.6351 179.866 17.9443C178.743 18.2536 177.758 18.6686 176.912 19.1895C176.066 19.7103 175.358 20.3125 174.788 20.9961C174.235 21.6797 173.828 22.404 173.567 23.1689H193.221ZM17.9443 56.3193H26.1475L44.6045 94.4785H36.4746L33.4229 88.0576H11.1328L8.17871 94.4785H0.0244141L17.9443 56.3193ZM30.3711 81.6855L22.1191 64.3516L14.0869 81.6855H30.3711ZM47.6338 65.6699H54.8604V69.8203C56.4554 68.6322 58.14 67.6068 59.9141 66.7441C61.6882 65.8815 63.4541 65.2223 65.2119 64.7666L67.3359 71.3828C64.5527 71.6595 62.1032 72.2861 59.9873 73.2627C57.8877 74.223 56.1787 75.582 54.8604 77.3398V94.4785H47.6338V65.6699ZM68.998 80.1475C68.998 78.0316 69.3805 76.0622 70.1455 74.2393C70.9268 72.4001 72.0579 70.8132 73.5391 69.4785C75.0365 68.1276 76.8594 67.0697 79.0078 66.3047C81.1725 65.5397 83.6383 65.1572 86.4053 65.1572C87.6097 65.1572 88.8223 65.2305 90.043 65.377C91.2637 65.5234 92.4355 65.735 93.5586 66.0117C94.6979 66.2721 95.764 66.5895 96.7568 66.9639C97.7497 67.3219 98.6123 67.7207 99.3447 68.1602L96 73.6045C94.4212 72.8721 92.9238 72.335 91.5078 71.9932C90.1081 71.6514 88.6839 71.4805 87.2354 71.4805C85.5752 71.4805 84.0859 71.7002 82.7676 72.1396C81.4492 72.5628 80.3262 73.165 79.3984 73.9463C78.487 74.7113 77.7871 75.6227 77.2988 76.6807C76.8268 77.7223 76.5908 78.8617 76.5908 80.0986C76.5908 81.3356 76.8431 82.4831 77.3477 83.541C77.8685 84.5827 78.5928 85.486 79.5205 86.251C80.4645 86.9997 81.5957 87.5938 82.9141 88.0332C84.2487 88.4564 85.7298 88.668 87.3574 88.668C89.1478 88.668 90.8324 88.4157 92.4111 87.9111C94.0062 87.4066 95.4873 86.7311 96.8545 85.8848L100.199 91.3291C99.3366 91.8499 98.4007 92.3382 97.3916 92.7939C96.3825 93.2334 95.3001 93.6159 94.1445 93.9414C93.0052 94.2669 91.8008 94.5192 90.5312 94.6982C89.278 94.8936 87.9759 94.9912 86.625 94.9912C83.8743 94.9912 81.4085 94.6169 79.2275 93.8682C77.0465 93.1195 75.1992 92.0859 73.6855 90.7676C72.1719 89.4329 71.0081 87.8623 70.1943 86.0557C69.3968 84.249 68.998 82.2796 68.998 80.1475ZM105.987 54H113.214V67.8672C114.728 67.0371 116.412 66.3779 118.268 65.8896C120.139 65.4014 122.101 65.1572 124.151 65.1572C126.528 65.1572 128.66 65.5072 130.548 66.207C132.452 66.9069 134.063 67.916 135.382 69.2344C136.7 70.5365 137.709 72.1234 138.409 73.9951C139.125 75.8669 139.483 77.9746 139.483 80.3184V94.4785H132.281V80.6113C132.281 79.2441 132.062 77.999 131.622 76.876C131.183 75.7367 130.54 74.7601 129.693 73.9463C128.847 73.1325 127.813 72.5059 126.593 72.0664C125.388 71.6107 124.021 71.3828 122.491 71.3828C120.652 71.3828 118.943 71.6758 117.364 72.2617C115.785 72.8477 114.402 73.5882 113.214 74.4834V94.4785H105.987V54ZM149.397 61.7393C148.681 61.7393 148.03 61.6416 147.444 61.4463C146.875 61.2347 146.386 60.958 145.979 60.6162C145.573 60.2581 145.255 59.8512 145.027 59.3955C144.816 58.9235 144.71 58.4271 144.71 57.9062C144.71 57.3691 144.816 56.8727 145.027 56.417C145.255 55.945 145.573 55.5381 145.979 55.1963C146.386 54.8545 146.875 54.5859 147.444 54.3906C148.03 54.179 148.681 54.0732 149.397 54.0732C150.13 54.0732 150.781 54.179 151.351 54.3906C151.937 54.5859 152.433 54.8545 152.84 55.1963C153.247 55.5381 153.556 55.945 153.768 56.417C153.995 56.8727 154.109 57.3691 154.109 57.9062C154.109 58.4271 153.995 58.9235 153.768 59.3955C153.556 59.8512 153.247 60.2581 152.84 60.6162C152.433 60.958 151.937 61.2347 151.351 61.4463C150.781 61.6416 150.13 61.7393 149.397 61.7393ZM145.784 65.6699H153.011V94.4785H145.784V65.6699ZM164.634 71.0898H157.676V65.6699H164.634V56.71H171.86V65.6699H178.818V71.0898H171.86V94.4785H164.634V71.0898ZM181.872 79.9766C181.872 78.0234 182.271 76.1598 183.068 74.3857C183.866 72.5954 185.013 71.0166 186.511 69.6494C188.008 68.2822 189.839 67.1917 192.004 66.3779C194.185 65.5641 196.659 65.1572 199.426 65.1572C202.176 65.1572 204.65 65.5723 206.848 66.4023C209.061 67.2161 210.933 68.3392 212.463 69.7715C214.009 71.2038 215.189 72.8883 216.003 74.8252C216.833 76.762 217.248 78.8372 217.248 81.0508C217.248 81.3275 217.24 81.6286 217.224 81.9541C217.224 82.2633 217.207 82.5482 217.175 82.8086H189.929C190.238 83.6712 190.734 84.4606 191.418 85.1768C192.118 85.8929 192.989 86.5114 194.03 87.0322C195.072 87.5531 196.276 87.96 197.644 88.2529C199.011 88.5296 200.524 88.668 202.185 88.668C203.845 88.668 205.497 88.4971 207.141 88.1553C208.785 87.7972 210.355 87.3496 211.853 86.8125L214.294 92.3301C213.35 92.7695 212.39 93.1602 211.413 93.502C210.453 93.8275 209.444 94.1042 208.386 94.332C207.344 94.5436 206.245 94.7064 205.09 94.8203C203.951 94.9342 202.746 94.9912 201.477 94.9912C198.238 94.9912 195.397 94.6006 192.956 93.8193C190.515 93.0381 188.472 91.972 186.828 90.6211C185.184 89.2702 183.947 87.6833 183.117 85.8604C182.287 84.0374 181.872 82.0762 181.872 79.9766ZM209.582 77.1689C209.322 76.3714 208.915 75.6309 208.361 74.9473C207.824 74.2474 207.149 73.6452 206.335 73.1406C205.521 72.6198 204.577 72.2129 203.503 71.9199C202.429 71.627 201.249 71.4805 199.963 71.4805C198.596 71.4805 197.351 71.6351 196.228 71.9443C195.104 72.2536 194.12 72.6686 193.273 73.1895C192.427 73.7103 191.719 74.3125 191.149 74.9961C190.596 75.6797 190.189 76.404 189.929 77.1689H209.582ZM221.303 80.1475C221.303 78.0316 221.685 76.0622 222.45 74.2393C223.231 72.4001 224.363 70.8132 225.844 69.4785C227.341 68.1276 229.164 67.0697 231.312 66.3047C233.477 65.5397 235.943 65.1572 238.71 65.1572C239.914 65.1572 241.127 65.2305 242.348 65.377C243.568 65.5234 244.74 65.735 245.863 66.0117C247.003 66.2721 248.069 66.5895 249.062 66.9639C250.054 67.3219 250.917 67.7207 251.649 68.1602L248.305 73.6045C246.726 72.8721 245.229 72.335 243.812 71.9932C242.413 71.6514 240.989 71.4805 239.54 71.4805C237.88 71.4805 236.391 71.7002 235.072 72.1396C233.754 72.5628 232.631 73.165 231.703 73.9463C230.792 74.7113 230.092 75.6227 229.604 76.6807C229.132 77.7223 228.896 78.8617 228.896 80.0986C228.896 81.3356 229.148 82.4831 229.652 83.541C230.173 84.5827 230.897 85.486 231.825 86.251C232.769 86.9997 233.9 87.5938 235.219 88.0332C236.553 88.4564 238.035 88.668 239.662 88.668C241.452 88.668 243.137 88.4157 244.716 87.9111C246.311 87.4066 247.792 86.7311 249.159 85.8848L252.504 91.3291C251.641 91.8499 250.705 92.3382 249.696 92.7939C248.687 93.2334 247.605 93.6159 246.449 93.9414C245.31 94.2669 244.105 94.5192 242.836 94.6982C241.583 94.8936 240.281 94.9912 238.93 94.9912C236.179 94.9912 233.713 94.6169 231.532 93.8682C229.351 93.1195 227.504 92.0859 225.99 90.7676C224.477 89.4329 223.313 87.8623 222.499 86.0557C221.701 84.249 221.303 82.2796 221.303 80.1475ZM262.638 71.0898H255.68V65.6699H262.638V56.71H269.864V65.6699H276.822V71.0898H269.864V94.4785H262.638V71.0898ZM281.243 65.6455H288.445V79.708C288.445 81.0426 288.592 82.2633 288.885 83.3701C289.178 84.4606 289.674 85.3965 290.374 86.1777C291.09 86.959 292.034 87.5693 293.206 88.0088C294.394 88.432 295.867 88.6436 297.625 88.6436C298.455 88.6436 299.293 88.554 300.14 88.375C301.002 88.196 301.824 87.9518 302.605 87.6426C303.387 87.3171 304.111 86.9346 304.778 86.4951C305.462 86.0557 306.048 85.5755 306.536 85.0547V65.6455H313.763V94.4785H306.536V92.0127C304.762 93.0706 302.98 93.8275 301.189 94.2832C299.399 94.7389 297.698 94.9668 296.087 94.9668C293.45 94.9668 291.188 94.6494 289.3 94.0146C287.428 93.3799 285.89 92.4603 284.686 91.2559C283.497 90.0352 282.627 88.5459 282.073 86.7881C281.52 85.014 281.243 82.9958 281.243 80.7334V65.6455ZM320.942 65.6699H328.169V69.8203C329.764 68.6322 331.449 67.6068 333.223 66.7441C334.997 65.8815 336.763 65.2223 338.521 64.7666L340.645 71.3828C337.861 71.6595 335.412 72.2861 333.296 73.2627C331.196 74.223 329.487 75.582 328.169 77.3398V94.4785H320.942V65.6699ZM342.673 79.9766C342.673 78.0234 343.072 76.1598 343.869 74.3857C344.667 72.5954 345.814 71.0166 347.312 69.6494C348.809 68.2822 350.64 67.1917 352.805 66.3779C354.986 65.5641 357.46 65.1572 360.227 65.1572C362.977 65.1572 365.451 65.5723 367.648 66.4023C369.862 67.2161 371.734 68.3392 373.264 69.7715C374.81 71.2038 375.99 72.8883 376.804 74.8252C377.634 76.762 378.049 78.8372 378.049 81.0508C378.049 81.3275 378.041 81.6286 378.024 81.9541C378.024 82.2633 378.008 82.5482 377.976 82.8086H350.729C351.039 83.6712 351.535 84.4606 352.219 85.1768C352.919 85.8929 353.789 86.5114 354.831 87.0322C355.873 87.5531 357.077 87.96 358.444 88.2529C359.812 88.5296 361.325 88.668 362.985 88.668C364.646 88.668 366.298 88.4971 367.941 88.1553C369.585 87.7972 371.156 87.3496 372.653 86.8125L375.095 92.3301C374.151 92.7695 373.19 93.1602 372.214 93.502C371.254 93.8275 370.244 94.1042 369.187 94.332C368.145 94.5436 367.046 94.7064 365.891 94.8203C364.751 94.9342 363.547 94.9912 362.277 94.9912C359.038 94.9912 356.198 94.6006 353.757 93.8193C351.315 93.0381 349.273 91.972 347.629 90.6211C345.985 89.2702 344.748 87.6833 343.918 85.8604C343.088 84.0374 342.673 82.0762 342.673 79.9766ZM370.383 77.1689C370.122 76.3714 369.715 75.6309 369.162 74.9473C368.625 74.2474 367.95 73.6452 367.136 73.1406C366.322 72.6198 365.378 72.2129 364.304 71.9199C363.229 71.627 362.049 71.4805 360.764 71.4805C359.396 71.4805 358.151 71.6351 357.028 71.9443C355.905 72.2536 354.921 72.6686 354.074 73.1895C353.228 73.7103 352.52 74.3125 351.95 74.9961C351.397 75.6797 350.99 76.404 350.729 77.1689H370.383ZM4.93164 110.319H25.3174C27.8076 110.319 29.9723 110.588 31.8115 111.125C33.667 111.646 35.2051 112.37 36.4258 113.298C37.6465 114.226 38.5498 115.332 39.1357 116.618C39.738 117.888 40.0391 119.263 40.0391 120.744C40.0391 123.169 39.2741 125.293 37.7441 127.116C39.502 128.158 40.8122 129.509 41.6748 131.169C42.5374 132.829 42.9688 134.717 42.9688 136.833C42.9688 138.607 42.6676 140.21 42.0654 141.643C41.4795 143.075 40.5762 144.304 39.3555 145.329C38.151 146.338 36.6211 147.119 34.7656 147.673C32.9264 148.21 30.7536 148.479 28.2471 148.479H4.93164V110.319ZM28.2959 124.968C28.9632 124.968 29.6143 124.992 30.249 125.041C31.3395 123.999 31.8848 122.811 31.8848 121.477C31.8848 120.093 31.3395 119.027 30.249 118.278C29.1748 117.513 27.596 117.131 25.5127 117.131H12.6709V124.968H28.2959ZM28.4424 141.74C30.5257 141.74 32.1045 141.293 33.1787 140.397C34.2692 139.502 34.8145 138.241 34.8145 136.613C34.8145 134.986 34.2692 133.716 33.1787 132.805C32.1045 131.893 30.5257 131.438 28.4424 131.438H12.6709V141.74H28.4424ZM46.5596 133.977C46.5596 132.023 46.9583 130.16 47.7559 128.386C48.5534 126.595 49.7008 125.017 51.1982 123.649C52.6956 122.282 54.5267 121.192 56.6914 120.378C58.8724 119.564 61.3464 119.157 64.1133 119.157C66.8639 119.157 69.3379 119.572 71.5352 120.402C73.7487 121.216 75.6204 122.339 77.1504 123.771C78.6966 125.204 79.8766 126.888 80.6904 128.825C81.5205 130.762 81.9355 132.837 81.9355 135.051C81.9355 135.327 81.9274 135.629 81.9111 135.954C81.9111 136.263 81.8949 136.548 81.8623 136.809H54.6162C54.9255 137.671 55.4219 138.461 56.1055 139.177C56.8053 139.893 57.6761 140.511 58.7178 141.032C59.7594 141.553 60.9639 141.96 62.3311 142.253C63.6982 142.53 65.2119 142.668 66.8721 142.668C68.5322 142.668 70.1842 142.497 71.8281 142.155C73.472 141.797 75.0426 141.35 76.54 140.812L78.9814 146.33C78.0374 146.77 77.0771 147.16 76.1006 147.502C75.1403 147.827 74.1312 148.104 73.0732 148.332C72.0316 148.544 70.9329 148.706 69.7773 148.82C68.638 148.934 67.4336 148.991 66.1641 148.991C62.9251 148.991 60.085 148.601 57.6436 147.819C55.2021 147.038 53.1595 145.972 51.5156 144.621C49.8717 143.27 48.6348 141.683 47.8047 139.86C46.9746 138.037 46.5596 136.076 46.5596 133.977ZM74.2695 131.169C74.0091 130.371 73.6022 129.631 73.0488 128.947C72.5117 128.247 71.8363 127.645 71.0225 127.141C70.2087 126.62 69.2646 126.213 68.1904 125.92C67.1162 125.627 65.9362 125.48 64.6504 125.48C63.2832 125.48 62.0381 125.635 60.915 125.944C59.792 126.254 58.8073 126.669 57.9609 127.189C57.1146 127.71 56.4066 128.312 55.8369 128.996C55.2835 129.68 54.8766 130.404 54.6162 131.169H74.2695ZM85.9902 134.147C85.9902 132.032 86.3727 130.062 87.1377 128.239C87.9189 126.4 89.0501 124.813 90.5312 123.479C92.0286 122.128 93.8516 121.07 96 120.305C98.1647 119.54 100.631 119.157 103.397 119.157C104.602 119.157 105.814 119.23 107.035 119.377C108.256 119.523 109.428 119.735 110.551 120.012C111.69 120.272 112.756 120.59 113.749 120.964C114.742 121.322 115.604 121.721 116.337 122.16L112.992 127.604C111.413 126.872 109.916 126.335 108.5 125.993C107.1 125.651 105.676 125.48 104.228 125.48C102.567 125.48 101.078 125.7 99.7598 126.14C98.4414 126.563 97.3184 127.165 96.3906 127.946C95.4792 128.711 94.7793 129.623 94.291 130.681C93.819 131.722 93.583 132.862 93.583 134.099C93.583 135.336 93.8353 136.483 94.3398 137.541C94.8607 138.583 95.585 139.486 96.5127 140.251C97.4567 141 98.5879 141.594 99.9062 142.033C101.241 142.456 102.722 142.668 104.35 142.668C106.14 142.668 107.825 142.416 109.403 141.911C110.998 141.407 112.479 140.731 113.847 139.885L117.191 145.329C116.329 145.85 115.393 146.338 114.384 146.794C113.375 147.233 112.292 147.616 111.137 147.941C109.997 148.267 108.793 148.519 107.523 148.698C106.27 148.894 104.968 148.991 103.617 148.991C100.867 148.991 98.4007 148.617 96.2197 147.868C94.0387 147.119 92.1914 146.086 90.6777 144.768C89.1641 143.433 88.0003 141.862 87.1865 140.056C86.389 138.249 85.9902 136.28 85.9902 134.147ZM121.246 134.074C121.246 132.007 121.661 130.07 122.491 128.264C123.338 126.457 124.534 124.878 126.08 123.527C127.643 122.176 129.522 121.11 131.72 120.329C133.933 119.548 136.415 119.157 139.166 119.157C141.917 119.157 144.391 119.548 146.588 120.329C148.801 121.11 150.681 122.176 152.228 123.527C153.79 124.878 154.986 126.457 155.816 128.264C156.663 130.07 157.086 132.007 157.086 134.074C157.086 136.141 156.663 138.078 155.816 139.885C154.986 141.691 153.79 143.27 152.228 144.621C150.681 145.972 148.801 147.038 146.588 147.819C144.391 148.601 141.917 148.991 139.166 148.991C136.415 148.991 133.933 148.601 131.72 147.819C129.522 147.038 127.643 145.972 126.08 144.621C124.534 143.27 123.338 141.691 122.491 139.885C121.661 138.078 121.246 136.141 121.246 134.074ZM128.839 134.074C128.839 135.23 129.067 136.328 129.522 137.37C129.994 138.396 130.67 139.307 131.549 140.104C132.444 140.886 133.526 141.512 134.796 141.984C136.082 142.44 137.538 142.668 139.166 142.668C140.794 142.668 142.242 142.44 143.512 141.984C144.798 141.512 145.88 140.886 146.759 140.104C147.654 139.307 148.329 138.396 148.785 137.37C149.257 136.328 149.493 135.23 149.493 134.074C149.493 132.919 149.257 131.82 148.785 130.778C148.329 129.737 147.654 128.825 146.759 128.044C145.88 127.246 144.798 126.62 143.512 126.164C142.242 125.692 140.794 125.456 139.166 125.456C137.538 125.456 136.082 125.692 134.796 126.164C133.526 126.62 132.444 127.246 131.549 128.044C130.67 128.825 129.994 129.737 129.522 130.778C129.067 131.82 128.839 132.919 128.839 134.074ZM162.581 119.67H169.808V122.111C171.614 121.005 173.372 120.24 175.081 119.816C176.806 119.377 178.491 119.157 180.135 119.157C182.43 119.157 184.537 119.523 186.458 120.256C188.379 120.988 190.022 122.095 191.39 123.576C192.448 122.762 193.489 122.079 194.515 121.525C195.54 120.956 196.565 120.5 197.591 120.158C198.616 119.8 199.658 119.548 200.716 119.401C201.774 119.239 202.864 119.157 203.987 119.157C206.347 119.157 208.488 119.483 210.408 120.134C212.329 120.769 213.965 121.721 215.315 122.99C216.683 124.26 217.732 125.847 218.465 127.751C219.214 129.639 219.588 131.828 219.588 134.318V148.479H212.386V135.49C212.386 133.911 212.158 132.504 211.702 131.267C211.263 130.013 210.636 128.964 209.822 128.117C209.025 127.255 208.064 126.604 206.941 126.164C205.835 125.708 204.614 125.48 203.279 125.48C202.547 125.48 201.798 125.554 201.033 125.7C200.268 125.83 199.52 126.042 198.787 126.335C198.071 126.628 197.396 127.002 196.761 127.458C196.126 127.897 195.573 128.418 195.101 129.021V148.479H187.898V135.49C187.898 133.911 187.671 132.504 187.215 131.267C186.775 130.013 186.149 128.964 185.335 128.117C184.537 127.255 183.569 126.604 182.43 126.164C181.307 125.708 180.07 125.48 178.719 125.48C177.889 125.48 177.05 125.57 176.204 125.749C175.374 125.912 174.568 126.148 173.787 126.457C173.022 126.766 172.298 127.141 171.614 127.58C170.947 128.02 170.345 128.516 169.808 129.069V148.479H162.581V119.67ZM225.327 133.977C225.327 132.023 225.726 130.16 226.523 128.386C227.321 126.595 228.468 125.017 229.966 123.649C231.463 122.282 233.294 121.192 235.459 120.378C237.64 119.564 240.114 119.157 242.881 119.157C245.632 119.157 248.105 119.572 250.303 120.402C252.516 121.216 254.388 122.339 255.918 123.771C257.464 125.204 258.644 126.888 259.458 128.825C260.288 130.762 260.703 132.837 260.703 135.051C260.703 135.327 260.695 135.629 260.679 135.954C260.679 136.263 260.662 136.548 260.63 136.809H233.384C233.693 137.671 234.189 138.461 234.873 139.177C235.573 139.893 236.444 140.511 237.485 141.032C238.527 141.553 239.731 141.96 241.099 142.253C242.466 142.53 243.979 142.668 245.64 142.668C247.3 142.668 248.952 142.497 250.596 142.155C252.24 141.797 253.81 141.35 255.308 140.812L257.749 146.33C256.805 146.77 255.845 147.16 254.868 147.502C253.908 147.827 252.899 148.104 251.841 148.332C250.799 148.544 249.701 148.706 248.545 148.82C247.406 148.934 246.201 148.991 244.932 148.991C241.693 148.991 238.853 148.601 236.411 147.819C233.97 147.038 231.927 145.972 230.283 144.621C228.639 143.27 227.402 141.683 226.572 139.86C225.742 138.037 225.327 136.076 225.327 133.977ZM253.037 131.169C252.777 130.371 252.37 129.631 251.816 128.947C251.279 128.247 250.604 127.645 249.79 127.141C248.976 126.62 248.032 126.213 246.958 125.92C245.884 125.627 244.704 125.48 243.418 125.48C242.051 125.48 240.806 125.635 239.683 125.944C238.56 126.254 237.575 126.669 236.729 127.189C235.882 127.71 235.174 128.312 234.604 128.996C234.051 129.68 233.644 130.404 233.384 131.169H253.037ZM267.639 139.641C269.592 140.812 271.74 141.675 274.084 142.229C276.428 142.782 278.828 143.059 281.286 143.059C282.946 143.059 284.33 142.945 285.437 142.717C286.543 142.489 287.43 142.196 288.098 141.838C288.765 141.48 289.237 141.073 289.514 140.617C289.79 140.161 289.929 139.698 289.929 139.226C289.929 138.542 289.628 137.956 289.025 137.468C288.439 136.979 287.463 136.735 286.096 136.735C285.461 136.735 284.777 136.776 284.045 136.857C283.312 136.939 282.539 137.028 281.726 137.126C280.928 137.207 280.09 137.289 279.211 137.37C278.348 137.451 277.469 137.492 276.574 137.492C274.621 137.492 272.953 137.281 271.569 136.857C270.202 136.434 269.087 135.856 268.225 135.124C267.362 134.392 266.735 133.529 266.345 132.536C265.954 131.527 265.759 130.445 265.759 129.289C265.759 127.824 266.101 126.473 266.784 125.236C267.468 123.999 268.444 122.933 269.714 122.038C270.983 121.127 272.513 120.419 274.304 119.914C276.11 119.41 278.12 119.157 280.334 119.157C281.49 119.157 282.694 119.23 283.947 119.377C285.217 119.507 286.462 119.686 287.683 119.914C288.903 120.142 290.075 120.41 291.198 120.72C292.321 121.013 293.314 121.33 294.177 121.672L291.906 127.287C290.067 126.604 288.228 126.066 286.389 125.676C284.566 125.269 282.686 125.065 280.749 125.065C279.398 125.065 278.251 125.171 277.307 125.383C276.379 125.578 275.622 125.847 275.036 126.188C274.45 126.514 274.019 126.896 273.742 127.336C273.482 127.759 273.352 128.207 273.352 128.679C273.352 129.021 273.417 129.33 273.547 129.606C273.693 129.883 273.921 130.127 274.23 130.339C274.556 130.534 274.971 130.689 275.476 130.803C275.996 130.9 276.631 130.949 277.38 130.949C278.063 130.949 278.788 130.909 279.553 130.827C280.318 130.746 281.115 130.664 281.945 130.583C282.775 130.485 283.63 130.396 284.509 130.314C285.404 130.233 286.315 130.192 287.243 130.192C288.968 130.192 290.474 130.396 291.76 130.803C293.062 131.21 294.136 131.779 294.982 132.512C295.829 133.244 296.464 134.107 296.887 135.1C297.31 136.092 297.521 137.175 297.521 138.347C297.521 139.86 297.172 141.268 296.472 142.57C295.772 143.872 294.73 145.004 293.347 145.964C291.963 146.908 290.238 147.648 288.171 148.186C286.12 148.723 283.744 148.991 281.042 148.991C279.382 148.991 277.779 148.885 276.232 148.674C274.686 148.479 273.213 148.21 271.813 147.868C270.414 147.51 269.095 147.095 267.858 146.623C266.638 146.151 265.523 145.646 264.514 145.109L267.639 139.641ZM17.9443 164.319H26.1475L44.6045 202.479H36.4746L33.4229 196.058H11.1328L8.17871 202.479H0.0244141L17.9443 164.319ZM30.3711 189.686L22.1191 172.352L14.0869 189.686H30.3711ZM47.6338 173.67H54.8604V177.82C56.4554 176.632 58.14 175.607 59.9141 174.744C61.6882 173.882 63.4541 173.222 65.2119 172.767L67.3359 179.383C64.5527 179.66 62.1032 180.286 59.9873 181.263C57.8877 182.223 56.1787 183.582 54.8604 185.34V202.479H47.6338V173.67ZM75.0771 179.09H68.1191V173.67H75.0771V164.71H82.3037V173.67H89.2617V179.09H82.3037V202.479H75.0771V179.09Z" fill="#E3E3E3"/>
</svg>
